<svg width="41" height="29" viewBox="0 0 41 29" fill="none" xmlns="http://www.w3.org/2000/svg">
<path d="M22.5828 26.7676L38.7682 28.3075C40.2917 28.4542 40.6818 27.6042 40.6818 26.8843L40.6651 26.011L20.7593 23.2045C20.7593 24.2011 21.5694 26.7676 22.5828 26.7676Z" fill="#C62828"/>
<path d="M18.4217 26.767L2.23633 28.307C0.712803 28.4536 0.322754 27.6037 0.322754 26.8837L0.339423 26.0104L20.2452 23.2006C20.2452 24.2005 19.4351 26.767 18.4217 26.767Z" fill="#C62828"/>
<path d="M17.8316 26.0076L15.3046 26.231L1.64625 27.5512C0.912828 27.5512 0.322754 26.9677 0.322754 26.2477L1.04618 4.15821C1.04618 3.43812 1.63959 2.85471 2.36968 2.85471L17.8316 1.39453C18.8451 1.39453 19.6685 2.20463 19.6685 3.20143V24.2041C19.6685 25.1975 18.8484 26.0076 17.8316 26.0076Z" fill="#F44336"/>
<path d="M23.1728 26.0071L25.7198 26.2304L39.3582 27.5472C40.0916 27.5472 40.6817 26.9638 40.6817 26.2437L39.9583 4.15431C39.9583 3.43422 39.3649 2.85081 38.6348 2.85081L23.1728 1.39062C22.1594 1.39062 21.3359 2.20073 21.3359 3.19752V24.2002C21.3359 25.1969 22.156 26.0071 23.1728 26.0071Z" fill="#F44336"/>
<path d="M25.4167 21.0638H15.5905L15.2905 26.2402L18.357 26.5269C18.357 26.5269 19.0137 28.1668 20.5003 28.1668C21.9868 28.1668 22.6435 26.5269 22.6435 26.5269L25.71 26.2402L25.4167 21.0638Z" fill="#424242"/>
<path fill-rule="evenodd" clip-rule="evenodd" d="M22.8622 25.986L25.7187 26.2326L25.647 27.0628L22.7905 26.8162L22.8622 25.986Z" fill="#616161"/>
<path fill-rule="evenodd" clip-rule="evenodd" d="M18.2134 26.8162L15.3568 27.0628L15.2852 26.2326L18.1417 25.986L18.2134 26.8162Z" fill="#616161"/>
<path d="M39.0545 4.10834L37.721 2.27478L20.5022 21.8439L3.28337 2.27478L1.94987 4.10834L1.76318 25.8944C1.76318 25.8944 5.30363 26.3378 10.0342 25.8577C14.1547 25.441 16.095 24.3742 17.4718 24.6509C19.1254 24.9843 19.4254 26.0011 19.4787 26.1745C19.6288 26.6545 19.9255 27.0279 20.5022 27.0279C21.0789 27.0279 21.3356 26.8279 21.5123 26.2345C21.5657 26.0611 21.879 24.9876 23.5326 24.6543C24.9094 24.3776 26.8497 25.4444 30.9702 25.8611C35.7008 26.3411 39.2412 25.8978 39.2412 25.8978L39.0545 4.10834Z" fill="#94C6D6"/>
<path d="M22.8887 25.9876C22.5154 25.9542 22.1721 26.1842 22.0521 26.5409C21.8721 27.0842 21.4522 27.7941 20.5022 27.7941C19.5423 27.7941 19.1189 27.0809 18.9356 26.5375C18.8156 26.1876 18.479 25.9609 18.109 25.9909L17.979 26.0009L17.9823 26.1076C17.9823 27.4975 19.1089 28.6241 20.4989 28.6241C21.8888 28.6241 23.0154 27.4975 23.0154 26.1076C23.0154 26.0742 23.0121 25.9976 23.0121 25.9976L22.8887 25.9876Z" fill="#616161"/>
<path d="M37.271 23.7923L37.3243 14.9961H39.1476L39.2409 25.8922C39.2409 25.8922 37.791 25.3289 37.271 23.7923Z" fill="url(#paint0_linear_1664_3479)"/>
<path d="M37.3551 18.6666L37.2717 23.7964C37.2717 23.7964 33.2846 23.5897 26.9338 22.4898C22.7799 21.7698 20.503 24.0763 20.503 24.0763L20.4663 18.6666H37.3551Z" fill="url(#paint1_linear_1664_3479)"/>
<path d="M3.6499 18.6666L3.73325 23.7964C3.73325 23.7964 7.72041 23.5897 14.0712 22.4898C18.2251 21.7698 20.502 24.0763 20.502 24.0763L20.4653 18.6666H3.6499Z" fill="url(#paint2_linear_1664_3479)"/>
<path d="M3.73308 23.7923L3.67975 14.9961H1.85318L1.76318 25.8922C1.76318 25.8922 3.20977 25.3289 3.73308 23.7923Z" fill="url(#paint3_linear_1664_3479)"/>
<path d="M37.7208 2.27465C37.7208 2.27465 28.873 0.611105 24.9892 0.394411C21.3354 0.191052 20.5853 2.05129 20.5119 2.27465H20.4986C20.4219 2.05129 19.6718 0.194386 16.018 0.394411C12.1342 0.611105 3.28645 2.27465 3.28645 2.27465L2.89307 23.744C2.89307 23.744 13.4277 21.5371 15.978 21.8238C18.5284 22.1105 20.5019 24.0774 20.5019 24.0774V24.0741V24.0774C20.5019 24.0774 22.4788 22.1105 25.0292 21.8238C27.5795 21.5371 38.1141 23.744 38.1141 23.744L37.7208 2.27465Z" fill="#F5F5F5"/>
<path opacity="0.26" d="M17.0421 0.397095L15.2422 21.7998C15.5255 21.7931 15.7755 21.7998 15.9755 21.8231C18.522 22.1065 20.5019 24.0767 20.5019 24.0767L20.4452 2.274C20.4452 2.274 20.0119 0.567116 17.0421 0.397095Z" fill="#94C6D6"/>
<g opacity="0.5">
<path opacity="0.5" d="M7.6053 3.22754C6.70535 3.3842 5.96872 3.51752 5.54874 3.59085C5.54874 3.79751 5.54874 4.02416 5.54541 4.26748C5.91539 4.20082 6.66868 4.06416 7.6053 3.90084V3.22754Z" fill="#757575"/>
<g opacity="0.5">
<path opacity="0.5" d="M15.7202 2.15432V2.81762C17.4968 2.81429 18.4801 3.26093 18.8034 3.44092C18.8034 3.16427 18.8067 2.91762 18.8067 2.70096C18.2567 2.45431 17.2501 2.15099 15.7202 2.15432Z" fill="#757575"/>
<path opacity="0.5" d="M14.272 2.23767C12.8287 2.38433 10.8188 2.69098 9.05225 2.9843V3.66093C10.8055 3.37095 12.8187 3.06096 14.272 2.90764V2.23767Z" fill="#757575"/>
</g>
<g opacity="0.5">
<path opacity="0.5" d="M10.7212 5.11523C8.56801 5.44855 6.40812 5.8352 5.5415 5.99186C5.5415 6.21184 5.5415 6.4385 5.5415 6.66849C6.2948 6.53183 8.50468 6.13185 10.7212 5.78853V5.11523Z" fill="#757575"/>
<path opacity="0.5" d="M14.7312 4.59529C14.0279 4.65196 13.1313 4.76528 12.168 4.89861V5.57191C13.1513 5.43192 14.0712 5.31859 14.7845 5.25859C17.1777 5.06194 18.441 5.64857 18.7943 5.84856C18.7943 5.59191 18.7943 5.34526 18.7943 5.10527C18.141 4.81528 16.8311 4.42197 14.7312 4.59529Z" fill="#757575"/>
</g>
<g opacity="0.5">
<path opacity="0.5" d="M7.96138 7.96545C6.9081 8.14544 6.02814 8.3021 5.5415 8.3921C5.5415 8.61542 5.5415 8.84208 5.5415 9.06873C5.97815 8.98873 6.87143 8.82874 7.96138 8.64209V7.96545Z" fill="#757575"/>
<path opacity="0.5" d="M18.7949 7.51518C18.1449 7.22186 16.8316 6.82188 14.7117 6.99854C13.3552 7.10853 11.2786 7.41851 9.40869 7.72516V8.4018C11.2953 8.09181 13.4018 7.7785 14.7684 7.66517C17.2016 7.46518 18.4682 8.07515 18.7949 8.26514C18.7949 8.00848 18.7949 7.76183 18.7949 7.51518Z" fill="#757575"/>
</g>
<g opacity="0.5">
<path opacity="0.5" d="M18.8003 9.92615C18.157 9.63283 16.8371 9.22285 14.7005 9.39951C14.4839 9.41618 14.2506 9.43951 14.0039 9.46617V10.1361C14.2739 10.1061 14.5239 10.0828 14.7572 10.0628C17.2371 9.85949 18.5037 10.4961 18.8037 10.6761C18.8003 10.4261 18.8003 10.1761 18.8003 9.92615Z" fill="#757575"/>
<path opacity="0.5" d="M12.5517 9.64587C9.94518 10.0025 6.69868 10.5792 5.54541 10.7891C5.54541 11.0158 5.54541 11.2391 5.54541 11.4658C6.56202 11.2791 9.88518 10.6825 12.5517 10.3158V9.64587Z" fill="#757575"/>
</g>
<g opacity="0.5">
<path opacity="0.5" d="M8.58525 12.6598C7.27532 12.8798 6.14205 13.0831 5.54541 13.1898C5.54541 13.4164 5.54541 13.6431 5.54541 13.8664C6.08538 13.7664 7.23532 13.5597 8.58525 13.3331V12.6598Z" fill="#757575"/>
<path opacity="0.5" d="M18.8014 12.34C18.1647 12.0466 16.8381 11.6267 14.6816 11.8033C13.4816 11.9033 11.7217 12.1533 10.0352 12.4233V13.0966C11.7384 12.8233 13.5283 12.5666 14.7349 12.4666C17.2781 12.2566 18.548 12.9366 18.8014 13.0899C18.8014 12.8399 18.8014 12.5899 18.8014 12.34Z" fill="#757575"/>
</g>
<path opacity="0.5" d="M18.8091 17.1636C18.2025 16.8737 16.8892 16.437 14.7227 16.6003V17.2703C17.4858 17.047 18.7391 17.8736 18.8091 17.9236C18.8091 17.6769 18.8091 17.4236 18.8091 17.1636Z" fill="#757575"/>
<g opacity="0.5">
<path opacity="0.5" d="M7.96212 17.5635C6.93551 17.7401 6.06222 17.8935 5.55225 17.9868C5.55225 18.2201 5.55225 18.4434 5.55225 18.6634C6.02222 18.5768 6.90217 18.4201 7.96212 18.2368V17.5635Z" fill="#757575"/>
<path opacity="0.5" d="M9.40869 17.3235V18.0001C10.702 17.7902 12.0919 17.5768 13.2752 17.4268V16.7535C12.0985 16.9002 10.7086 17.1102 9.40869 17.3235Z" fill="#757575"/>
</g>
<g opacity="0.5">
<path opacity="0.5" d="M11.7244 19.3643C9.33782 19.7109 6.65463 20.1875 5.55469 20.3875C5.55469 20.6342 5.55469 20.8608 5.55469 21.0642C6.5513 20.8808 9.28449 20.3942 11.7244 20.0376V19.3643Z" fill="#757575"/>
<path opacity="0.5" d="M18.8116 19.5772C18.2083 19.2838 16.865 18.8272 14.6251 19.0105C14.2018 19.0439 13.7085 19.1005 13.1719 19.1672V19.8371C13.7285 19.7671 14.2418 19.7105 14.6785 19.6738C17.5316 19.4372 18.7849 20.3238 18.7982 20.3305L18.8149 20.3105C18.8149 20.0805 18.8149 19.8371 18.8116 19.5772Z" fill="#757575"/>
</g>
<g opacity="0.5">
<path opacity="0.5" d="M11.228 14.6367C8.95483 14.9767 6.54495 15.4067 5.54834 15.59C5.54834 15.82 5.54834 16.0433 5.54834 16.2666C6.44163 16.1033 8.89816 15.6633 11.228 15.31V14.6367Z" fill="#757575"/>
<path opacity="0.5" d="M18.8046 14.7505C18.1779 14.4572 16.848 14.0239 14.6615 14.2039C14.1015 14.2506 13.4182 14.3306 12.6782 14.4305V15.1038C13.4415 15.0005 14.1448 14.9172 14.7181 14.8705C17.3446 14.6539 18.6146 15.3838 18.8079 15.5072C18.8046 15.2605 18.8046 15.0072 18.8046 14.7505Z" fill="#757575"/>
</g>
</g>
<g opacity="0.5">
<g opacity="0.5">
<path opacity="0.5" d="M28.6401 3.06978C31.3999 3.43643 35.0064 4.08973 35.9863 4.26639C35.9863 4.01973 35.9863 3.79641 35.983 3.58976C34.8364 3.37977 31.3266 2.75313 28.6367 2.39648V3.06978H28.6401Z" fill="#757575"/>
<path opacity="0.5" d="M27.1897 2.22987C27.0463 2.21654 26.9097 2.20321 26.7797 2.19321C24.6898 2.01988 23.3832 2.40986 22.7266 2.69985C22.7266 2.9165 22.7299 3.16649 22.7299 3.43981C23.1032 3.23315 24.3665 2.66318 26.7264 2.85651C26.873 2.86984 27.0297 2.88317 27.1897 2.89984V2.22987Z" fill="#757575"/>
</g>
<g opacity="0.5">
<path opacity="0.5" d="M33.2915 6.19417C34.5148 6.40416 35.5281 6.58415 35.9914 6.67081C35.9914 6.43749 35.9914 6.21417 35.9914 5.99418C35.4681 5.89752 34.4748 5.72086 33.2915 5.52087V6.19417Z" fill="#757575"/>
<path opacity="0.5" d="M31.8424 5.27798C30.0392 4.988 28.0926 4.70134 26.7994 4.59468C24.6995 4.42136 23.3895 4.81467 22.7329 5.10466C22.7329 5.34465 22.7329 5.5913 22.7329 5.84795C23.0862 5.64796 24.3495 5.06133 26.7427 5.25798C28.046 5.36464 30.0225 5.65796 31.8391 5.95128V5.27798H31.8424Z" fill="#757575"/>
</g>
<path opacity="0.5" d="M31.5649 7.63123V8.30452C33.5015 8.61451 35.3047 8.94116 35.9914 9.06782C35.9914 8.83783 35.9914 8.61451 35.9914 8.39119C35.2147 8.25119 33.4448 7.93454 31.5649 7.63123Z" fill="#757575"/>
<g opacity="0.5">
<path opacity="0.5" d="M28.6359 9.6017C27.966 9.51503 27.346 9.44171 26.8327 9.40171C24.6961 9.22505 23.3762 9.63503 22.7329 9.92835C22.7329 10.1783 22.7329 10.4283 22.7329 10.6783C23.0329 10.5016 24.3028 9.86168 26.7794 10.065C27.306 10.1083 27.946 10.1817 28.6359 10.275V9.6017Z" fill="#757575"/>
<path opacity="0.5" d="M30.0874 9.80566V10.479C32.5039 10.8389 35.1071 11.3089 35.9871 11.4689C35.9871 11.2423 35.9871 11.0156 35.9871 10.7923C34.9938 10.609 32.4439 10.1556 30.0874 9.80566Z" fill="#757575"/>
</g>
<g opacity="0.5">
<path opacity="0.5" d="M30.3792 12.2484C29.0626 12.0484 27.786 11.8784 26.8527 11.8017C24.6928 11.6251 23.3662 12.0451 22.7329 12.3384C22.7329 12.5884 22.7329 12.8417 22.7329 13.0917C22.9862 12.935 24.2562 12.2584 26.7994 12.4684C27.7426 12.545 29.0459 12.7217 30.3825 12.925V12.2484H30.3792Z" fill="#757575"/>
<path opacity="0.5" d="M31.8281 12.476V13.1526C33.6414 13.4459 35.3013 13.7459 35.9846 13.8692C35.9846 13.6459 35.9846 13.4192 35.9846 13.1926C35.2246 13.0526 33.5914 12.7593 31.8281 12.476Z" fill="#757575"/>
</g>
<path opacity="0.5" d="M34.1836 15.2692V15.9458C34.9702 16.0825 35.6135 16.1991 35.9802 16.2658C35.9802 16.0425 35.9802 15.8158 35.9802 15.5891C35.5802 15.5158 34.9469 15.4025 34.1836 15.2692Z" fill="#757575"/>
<g opacity="0.5">
<path opacity="0.5" d="M28.9329 16.8383C28.1696 16.735 27.463 16.6516 26.8897 16.605C24.6765 16.4216 23.3399 16.8683 22.7266 17.1616C22.7266 17.4216 22.7266 17.6749 22.7266 17.9216C22.7966 17.8716 24.0565 17.0383 26.8397 17.2683C27.4263 17.3149 28.1529 17.4016 28.9396 17.5082V16.8383H28.9329Z" fill="#757575"/>
<path opacity="0.5" d="M30.3804 17.0452V17.7185C32.6736 18.0651 35.0801 18.4984 35.9801 18.6618C35.9801 18.4418 35.9801 18.2151 35.9801 17.9851C34.9801 17.8051 32.6203 17.3851 30.3804 17.0452Z" fill="#757575"/>
</g>
<g opacity="0.5">
<path opacity="0.5" d="M31.5631 19.6297C29.8732 19.3597 28.1066 19.1064 26.9067 19.0064C24.6634 18.8231 23.3235 19.2831 22.7202 19.573C22.7202 19.833 22.7202 20.0763 22.7202 20.3063L22.7369 20.3263C22.7469 20.3197 24.0001 19.433 26.8567 19.6697C28.0666 19.7697 29.8632 20.0297 31.5697 20.303V19.6297H31.5631Z" fill="#757575"/>
<path opacity="0.5" d="M33.0142 19.8694V20.546C34.3108 20.7627 35.4174 20.9627 35.9773 21.066C35.9773 20.8627 35.9773 20.636 35.9773 20.3894C35.3674 20.276 34.2741 20.0794 33.0142 19.8694Z" fill="#757575"/>
</g>
<g opacity="0.5">
<path opacity="0.5" d="M26.813 14.1984C24.6598 14.0284 23.3465 14.4583 22.7266 14.7483C22.7266 15.0016 22.7266 15.255 22.7266 15.505C22.9199 15.3816 24.1865 14.6517 26.813 14.8683V14.1984Z" fill="#757575"/>
<path opacity="0.5" d="M28.2642 14.3512V15.0212C29.6374 15.1945 31.2873 15.4545 32.7373 15.6945V15.0178C31.2773 14.7778 29.6274 14.5212 28.2642 14.3512Z" fill="#757575"/>
</g>
<g opacity="0.5">
<path opacity="0.5" d="M25.7423 6.95837C24.2491 6.96837 23.2658 7.27502 22.7358 7.51501C22.7358 7.76167 22.7358 8.00832 22.7358 8.26164C23.0158 8.10165 23.9724 7.63834 25.7423 7.62167V6.95837Z" fill="#757575"/>
<path opacity="0.5" d="M27.1899 7.03125V7.70121C28.0199 7.78454 29.0498 7.92454 30.1131 8.0812V7.4079C29.0465 7.24791 28.0199 7.11125 27.1899 7.03125Z" fill="#757575"/>
</g>
</g>
<defs>
<linearGradient id="paint0_linear_1664_3479" x1="38.2522" y1="22.5693" x2="38.3346" y2="16.8021" gradientUnits="userSpaceOnUse">
<stop offset="0.2665" stop-color="#82AEC0"/>
<stop offset="1" stop-color="#82AEC0" stop-opacity="0"/>
</linearGradient>
<linearGradient id="paint1_linear_1664_3479" x1="22.4756" y1="21.3702" x2="36.748" y2="21.3702" gradientUnits="userSpaceOnUse">
<stop stop-color="#2F7889"/>
<stop offset="1" stop-color="#82AEC0"/>
</linearGradient>
<linearGradient id="paint2_linear_1664_3479" x1="18.4949" y1="21.3702" x2="4.25444" y2="21.3702" gradientUnits="userSpaceOnUse">
<stop stop-color="#2F7889"/>
<stop offset="1" stop-color="#82AEC0"/>
</linearGradient>
<linearGradient id="paint3_linear_1664_3479" x1="2.7507" y1="22.5693" x2="2.6683" y2="16.802" gradientUnits="userSpaceOnUse">
<stop offset="0.2665" stop-color="#82AEC0"/>
<stop offset="1" stop-color="#82AEC0" stop-opacity="0"/>
</linearGradient>
</defs>
</svg>
