<svg width="49" height="49" viewBox="0 0 49 49" fill="none" xmlns="http://www.w3.org/2000/svg">
<path d="M24.5559 13.1659C24.5559 13.1659 21.916 12.6459 20.0295 13.8258C18.1429 15.0058 15.7364 17.9756 14.0398 19.4855C12.3432 20.9955 5.64356 23.352 4.84027 27.2685C4.03698 31.1849 5.62023 34.7447 9.03672 38.3512C12.4332 41.9344 17.3863 43.6809 20.5461 42.7376C23.7059 41.7944 25.4059 37.2179 28.0457 34.6714C30.6856 32.1249 32.7288 30.5683 33.9354 28.0984C35.3853 25.1286 34.512 23.212 34.512 23.212L24.5559 13.1659Z" fill="#BBCED4"/>
<path d="M28.189 18.4022C27.4824 17.6956 25.9758 15.0891 24.8425 14.8524C23.7092 14.6158 21.2394 14.9091 19.2261 16.8923C17.5862 18.5089 15.8763 20.3821 14.2731 21.5621C12.6698 22.742 9.61331 24.3653 8.70669 25.0519C8.04672 25.5552 6.5168 26.7318 6.38348 29.0983C6.27682 30.9616 6.95012 33.5814 10.1699 37.0313C13.4498 40.5477 16.8696 41.1644 18.9095 41.0144C21.7693 40.8077 23.0426 38.2945 23.5659 37.5212C24.2292 36.5446 26.2991 33.6348 27.3857 32.7848C28.469 31.9349 31.1588 29.6016 32.1488 27.6451C33.602 24.7752 32.9921 23.1653 32.9921 23.1653L28.189 18.4022Z" fill="#F5F3E7"/>
<path d="M16.8129 22.7388C17.2362 23.3354 18.1962 23.3887 19.4194 22.3588C20.6394 21.3289 21.8893 20.3789 22.7293 19.9156C23.5692 19.4556 25.3091 18.369 24.0858 16.8758C22.8659 15.3825 21.316 16.7658 20.6127 17.4724C19.9061 18.179 19.0461 19.5423 18.2228 20.5122C17.4629 21.4088 16.2163 21.8988 16.8129 22.7388Z" fill="white"/>
<path d="M26.6023 9.95582C24.6424 11.5991 24.0658 12.459 23.9791 13.309C23.8958 14.1589 24.6591 16.8788 27.6623 20.2186C30.6655 23.5584 33.6953 25.2317 34.9419 25.035C36.1885 24.8384 37.0018 23.9084 38.1484 22.7385C38.625 22.2518 40.0283 20.7019 40.085 19.9353C40.1416 19.172 39.5883 16.2122 36.7418 12.9523C33.3386 9.0492 30.6321 8.45923 29.9288 8.40924C28.6756 8.31924 27.6523 9.0792 26.6023 9.95582Z" fill="#37B4E5"/>
<path d="M29.192 9.93274C29.1487 11.4693 30.3786 14.0259 32.6718 16.5224C35.4784 19.5756 37.2049 20.4455 38.5315 20.7522C39.2082 20.9088 39.8281 20.6888 39.8015 20.2822C39.7748 19.8755 39.4181 20.0622 37.9949 19.5422C37.3383 19.3022 35.5517 18.3556 33.3851 15.9124C31.2186 13.4659 30.3453 11.5827 30.2153 10.2894C30.082 8.97279 30.4586 8.77946 29.972 8.60281C29.4887 8.41948 29.2187 9.01612 29.192 9.93274Z" fill="#1E88FE"/>
<path d="M28.6319 10.136C28.8619 10.616 27.9686 11.3859 27.2053 12.1225C26.2853 13.0125 25.6287 13.6425 25.3187 13.2192C24.9887 12.7592 26.082 11.9192 26.6187 11.3859C27.4353 10.5693 28.3786 9.60268 28.6319 10.136Z" fill="#1E88FE"/>
<path d="M27.7086 14.6123C26.532 15.6889 25.9953 16.0422 26.3953 16.4755C26.7986 16.9088 27.7886 15.8622 28.2152 15.4556C28.6452 15.0456 30.0351 13.999 29.6885 13.539C29.2518 12.9591 28.4052 13.9723 27.7086 14.6123Z" fill="#1E88FE"/>
<path d="M30.0153 17.7224C29.0387 18.6823 28.1421 19.429 28.6287 19.8589C29.0587 20.2356 30.0687 19.0856 30.692 18.4723C31.3153 17.859 32.3119 17.0691 31.9152 16.6324C31.4553 16.1225 30.7753 16.9758 30.0153 17.7224Z" fill="#1E88FE"/>
<path d="M31.4786 22.4253C31.9219 22.8519 32.6019 22.1053 33.3851 21.2787C34.1051 20.5187 35.0884 19.8721 34.6117 19.3854C34.1684 18.9321 33.3285 19.8587 32.6518 20.5054C31.8686 21.2553 31.0586 22.0286 31.4786 22.4253Z" fill="#1E88FE"/>
<path d="M35.7423 22.3721C34.659 23.4553 34.1824 23.8486 34.639 24.202C35.0956 24.5553 35.9923 23.432 36.6156 22.892C37.2389 22.3521 37.9455 21.7288 37.5522 21.3521C37.1589 20.9788 36.4722 21.6421 35.7423 22.3721Z" fill="#1E88FE"/>
<path d="M43.6581 9.7661C44.5014 8.94948 45.1047 7.17957 43.7681 5.9963C42.6382 4.99302 40.9183 5.29967 40.0183 6.37295C39.1284 7.43956 39.2184 8.31285 38.2284 8.50284C37.1618 8.70616 36.0352 7.44623 33.5187 7.90287C32.6154 8.06619 31.7754 8.75616 31.1621 9.41612C31.2654 9.84277 31.1021 11.906 34.002 15.2291C36.5085 18.1023 38.9917 18.9623 39.6517 18.8156C40.3316 18.1857 41.1649 17.179 41.4016 15.9058C41.9149 13.1493 40.5716 12.2393 41.0183 11.4827C41.6016 10.4894 42.5582 10.8327 43.6581 9.7661Z" fill="#FFA828"/>
<path d="M40.3317 8.06939C40.7684 8.64603 41.4284 8.19938 41.9383 7.65275C42.3483 7.20944 42.9116 6.73279 42.6116 6.37281C42.185 5.85951 41.4417 6.08283 40.9817 6.43614C40.5184 6.78946 40.0084 7.64275 40.3317 8.06939Z" fill="#FFCC8A"/>
<path d="M33.2383 9.5828C33.0583 10.5194 34.3482 10.6694 34.8815 10.7361C35.4148 10.8027 36.6314 10.8494 36.6781 10.0028C36.7214 9.22615 35.8315 8.89283 35.0582 8.80617C34.2815 8.71951 33.3716 8.89616 33.2383 9.5828Z" fill="#FFCC8A"/>
</svg>
