<svg width="23" height="41" viewBox="0 0 23 41" fill="none" xmlns="http://www.w3.org/2000/svg">
<path d="M19.3034 40.505H3.7015C2.13463 40.505 0.834473 39.2382 0.834473 37.638V3.36703C0.834473 1.80016 2.13463 0.5 3.7015 0.5H19.3034C20.8703 0.5 22.1705 1.76683 22.1705 3.36703V37.6713C22.1705 39.2382 20.8703 40.505 19.3034 40.505Z" fill="#424242"/>
<path d="M19.0933 39.2088H3.47798C2.76122 39.2088 2.18115 38.6287 2.18115 37.912V5.71793C2.18115 5.00451 2.76122 4.42444 3.47465 4.42444H19.5267C20.2434 4.42444 20.8235 5.00451 20.8235 5.72127V37.702C20.8235 38.012 20.3568 39.2088 19.0933 39.2088Z" fill="black"/>
<path d="M14.7191 3.03043H8.31941C8.08609 3.03043 7.91943 2.83044 7.91943 2.63045C7.91943 2.43046 8.11942 2.23047 8.31941 2.23047H14.6857C14.9191 2.23047 15.0857 2.43046 15.0857 2.63045C15.0857 2.83044 14.9191 3.03043 14.7191 3.03043Z" fill="#212121"/>
<path d="M19.3034 1.16675C20.5169 1.16675 21.5037 2.15354 21.5037 3.36703V37.6713C21.5037 38.8648 20.5169 39.8383 19.3034 39.8383H3.7015C2.48801 39.8383 1.50122 38.8515 1.50122 37.638V3.36703C1.50122 2.17354 2.50801 1.16675 3.7015 1.16675H19.3034ZM19.3034 0.5H3.7015C2.13463 0.5 0.834473 1.80016 0.834473 3.36703V37.638C0.834473 39.2382 2.13463 40.505 3.7015 40.505H19.3034C20.8703 40.505 22.1705 39.2382 22.1705 37.6713V3.36703C22.1705 1.76683 20.8703 0.5 19.3034 0.5Z" fill="#757575"/>
<path d="M6.28496 9.15475H4.16508C3.92176 9.15475 3.7251 8.95809 3.7251 8.71477V6.59488C3.7251 6.35156 3.92176 6.15491 4.16508 6.15491H6.28496C6.52828 6.15491 6.72494 6.35156 6.72494 6.59488V8.71477C6.72494 8.95809 6.52828 9.15475 6.28496 9.15475Z" fill="#EAB56E"/>
<path d="M10.47 9.15487H8.35013C8.10681 9.15487 7.91016 8.95822 7.91016 8.7149V6.59501C7.91016 6.35169 8.10681 6.15503 8.35013 6.15503H10.47C10.7133 6.15503 10.91 6.35169 10.91 6.59501V8.7149C10.91 8.95822 10.7133 9.15487 10.47 9.15487Z" fill="#FB8C00"/>
<path d="M14.6527 9.15487H12.5362C12.2928 9.15487 12.0962 8.95822 12.0962 8.7149V6.59501C12.0962 6.35169 12.2928 6.15503 12.5362 6.15503H14.6561C14.8994 6.15503 15.096 6.35169 15.096 6.59501V8.7149C15.096 8.95822 14.8994 9.15487 14.6527 9.15487Z" fill="#FF80AB"/>
<path d="M18.8411 9.15487H16.7212C16.4779 9.15487 16.2812 8.95822 16.2812 8.7149V6.59501C16.2812 6.35169 16.4779 6.15503 16.7212 6.15503H18.8411C19.0844 6.15503 19.2811 6.35169 19.2811 6.59501V8.7149C19.2811 8.95822 19.0844 9.15487 18.8411 9.15487Z" fill="#0288D1"/>
<path d="M6.28496 13.875H4.16508C3.92176 13.875 3.7251 13.6783 3.7251 13.435V11.3151C3.7251 11.0718 3.92176 10.8751 4.16508 10.8751H6.28496C6.52828 10.8751 6.72494 11.0718 6.72494 11.3151V13.435C6.72494 13.6783 6.52828 13.875 6.28496 13.875Z" fill="#00BFA5"/>
<path d="M10.47 13.875H8.35013C8.10681 13.875 7.91016 13.6783 7.91016 13.435V11.3151C7.91016 11.0718 8.10681 10.8751 8.35013 10.8751H10.47C10.7133 10.8751 10.91 11.0718 10.91 11.3151V13.435C10.91 13.6783 10.7133 13.875 10.47 13.875Z" fill="#81D4FA"/>
<path d="M14.6527 13.875H12.5362C12.2928 13.875 12.0962 13.6783 12.0962 13.435V11.3151C12.0962 11.0718 12.2928 10.8751 12.5362 10.8751H14.6561C14.8994 10.8751 15.096 11.0718 15.096 11.3151V13.435C15.096 13.6783 14.8994 13.875 14.6527 13.875Z" fill="#FB8C00"/>
<path d="M18.8411 13.875H16.7212C16.4779 13.875 16.2812 13.6783 16.2812 13.435V11.3151C16.2812 11.0718 16.4779 10.8751 16.7212 10.8751H18.8411C19.0844 10.8751 19.2811 11.0718 19.2811 11.3151V13.435C19.2811 13.6783 19.0844 13.875 18.8411 13.875Z" fill="#EAB56E"/>
<path d="M6.28496 18.5963H4.16508C3.92176 18.5963 3.7251 18.3996 3.7251 18.1563V16.0364C3.7251 15.7931 3.92176 15.5964 4.16508 15.5964H6.28496C6.52828 15.5964 6.72494 15.7931 6.72494 16.0364V18.1563C6.72494 18.3996 6.52828 18.5963 6.28496 18.5963Z" fill="#FB8C00"/>
<path d="M10.47 18.5963H8.35013C8.10681 18.5963 7.91016 18.3996 7.91016 18.1563V16.0364C7.91016 15.7931 8.10681 15.5964 8.35013 15.5964H10.47C10.7133 15.5964 10.91 15.7931 10.91 16.0364V18.1563C10.91 18.3996 10.7133 18.5963 10.47 18.5963Z" fill="#FF80AB"/>
<path d="M14.6527 18.5963H12.5362C12.2928 18.5963 12.0962 18.3996 12.0962 18.1563V16.0364C12.0962 15.7931 12.2928 15.5964 12.5362 15.5964H14.6561C14.8994 15.5964 15.096 15.7931 15.096 16.0364V18.1563C15.096 18.3996 14.8994 18.5963 14.6527 18.5963Z" fill="#00BFA5"/>
<path d="M18.8411 18.5963H16.7212C16.4779 18.5963 16.2812 18.3996 16.2812 18.1563V16.0364C16.2812 15.7931 16.4779 15.5964 16.7212 15.5964H18.8411C19.0844 15.5964 19.2811 15.7931 19.2811 16.0364V18.1563C19.2811 18.3996 19.0844 18.5963 18.8411 18.5963Z" fill="#0288D1"/>
<path d="M6.28496 23.3164H4.16508C3.92176 23.3164 3.7251 23.1197 3.7251 22.8764V20.7565C3.7251 20.5132 3.92176 20.3165 4.16508 20.3165H6.28496C6.52828 20.3165 6.72494 20.5132 6.72494 20.7565V22.8764C6.72494 23.1197 6.52828 23.3164 6.28496 23.3164Z" fill="#0288D1"/>
<path d="M10.47 23.3164H8.35013C8.10681 23.3164 7.91016 23.1197 7.91016 22.8764V20.7565C7.91016 20.5132 8.10681 20.3165 8.35013 20.3165H10.47C10.7133 20.3165 10.91 20.5132 10.91 20.7565V22.8764C10.91 23.1197 10.7133 23.3164 10.47 23.3164Z" fill="#81D4FA"/>
<path d="M6.28496 37.4779H4.16508C3.92176 37.4779 3.7251 37.2812 3.7251 37.0379V34.918C3.7251 34.6747 3.92176 34.478 4.16508 34.478H6.28496C6.52828 34.478 6.72494 34.6747 6.72494 34.918V37.0379C6.72494 37.2779 6.52828 37.4779 6.28496 37.4779Z" fill="#81D4FA"/>
<path d="M10.47 37.4779H8.35013C8.10681 37.4779 7.91016 37.2812 7.91016 37.0379V34.918C7.91016 34.6747 8.10681 34.478 8.35013 34.478H10.47C10.7133 34.478 10.91 34.6747 10.91 34.918V37.0379C10.91 37.2779 10.7133 37.4779 10.47 37.4779Z" fill="#0288D1"/>
<path d="M14.6527 37.4779H12.5362C12.2928 37.4779 12.0962 37.2812 12.0962 37.0379V34.918C12.0962 34.6747 12.2928 34.478 12.5362 34.478H14.6561C14.8994 34.478 15.096 34.6747 15.096 34.918V37.0379C15.096 37.2779 14.8994 37.4779 14.6527 37.4779Z" fill="#00BFA5"/>
<path d="M18.8411 37.4779H16.7212C16.4779 37.4779 16.2812 37.2812 16.2812 37.0379V34.918C16.2812 34.6747 16.4779 34.478 16.7212 34.478H18.8411C19.0844 34.478 19.2811 34.6747 19.2811 34.918V37.0379C19.2811 37.2779 19.0844 37.4779 18.8411 37.4779Z" fill="#FF80AB"/>
</svg>
