<svg width="26" height="41" viewBox="0 0 26 41" fill="none" xmlns="http://www.w3.org/2000/svg">
<path d="M13.9517 27.03L14.1317 32.293C14.135 32.6897 14.395 32.953 15.0016 32.953C15.6082 32.953 15.8749 32.6863 15.8749 32.2964L16.0715 26.62L13.9517 27.03Z" fill="#9E5737"/>
<path d="M11.1767 24.8665V22.8495C10.37 22.9496 9.98338 22.8229 9.98338 22.8229L1.19385 18.6523V19.7591C1.19385 20.2425 1.19385 20.5526 1.90048 20.896L2.0138 20.9526L2.45711 35.2644C2.46045 35.6611 2.76043 35.9245 3.36373 35.9245C3.97037 35.9245 4.26702 35.6578 4.26702 35.2678L4.61367 24.9898L9.41341 27.3601L9.29342 24.7798C9.88006 25.0665 10.53 24.9498 11.1767 24.8665Z" fill="#9E5737"/>
<path d="M24.7808 20.546L10.8024 23.243C10.4923 23.313 10.269 23.5897 10.269 23.9064V24.2264C10.269 24.5732 10.5257 24.8465 10.8491 24.8965C10.3023 24.9132 9.73558 24.8065 9.24219 24.5598L9.73558 39.8451C9.73892 40.2418 10.0223 40.5052 10.6257 40.5052C11.2324 40.5052 11.5225 40.2385 11.5225 39.8484L11.9392 27.5369L21.9804 25.6033L22.3338 36.878C22.3372 37.2748 22.6305 37.5381 23.2339 37.5381C23.8407 37.5381 24.1207 37.2714 24.1207 36.8814L24.6241 22.3029H24.6274L24.8741 22.2562C25.2809 22.1795 25.5742 21.8228 25.5742 21.4094V20.1193L24.7808 20.546Z" fill="#BA793E"/>
<path d="M15.7556 6.88745H13.6357L13.6157 16.0736L15.7689 15.7003L15.7556 6.88745Z" fill="#9E5737"/>
<path d="M14.6023 0.909649C14.2823 0.956313 1.69402 2.80955 1.69402 2.80955C1.17729 2.90954 0.75724 3.37952 0.753906 3.98282L0.760574 4.24281L2.15742 5.88939C2.15742 5.88939 6.14125 9.10589 6.43795 9.04922C6.73465 8.99256 16.9426 1.61961 16.9426 1.61961C16.7492 1.38629 16.5525 1.27963 15.7124 1.06297C15.3157 0.959646 14.9223 0.862985 14.6023 0.909649Z" fill="#F0AA6B"/>
<path d="M2.24686 11.6381L2.10353 4.78061C2.10687 4.18386 1.93688 3.93383 1.59356 3.75714C1.22025 3.54712 0.756939 3.81715 0.760272 4.24721L0.786937 10.878C0.786937 11.0814 0.760272 11.6381 1.18025 11.7748L2.0402 12.0215V18.2056L4.16009 17.7922V11.6381H2.24686Z" fill="#9E5737"/>
<path d="M25.1938 20.505L11.2487 23.1749C10.6153 23.2948 9.95859 23.2082 9.37851 22.9182L1.43752 18.9784C1.06414 18.7918 1.13082 18.1818 1.68088 18.1018L15.7126 15.7152C16.2694 15.6086 16.8561 15.5953 17.3662 15.8452L25.3138 19.6217C25.7172 19.8217 25.6372 20.4183 25.1938 20.505Z" fill="#F0AA6B"/>
<path d="M11.9351 24.7294L21.8912 22.8229L21.9245 23.7695L12.7817 25.5194L12.535 27.4193L11.9784 27.5293L11.9351 24.7294Z" fill="#9E5737"/>
<path d="M13.9624 27.1466L14.0257 29.0565C14.0257 29.0565 14.349 28.4699 14.8824 28.0633C15.399 27.6666 16.0423 27.5766 16.0423 27.5766L16.0723 26.74L13.9624 27.1466Z" fill="#77381F"/>
<path d="M9.23962 24.5558L2 20.9393C2 20.9393 2.86329 21.7593 3.66658 22.9492C4.37987 24.0092 4.6132 24.9891 4.6132 24.9891L5.07984 25.2191V23.4259L9.26295 25.5024L9.23962 24.5558Z" fill="#77381F"/>
<path d="M16.2287 1.58971L2.77368 3.58627C2.19028 3.72627 2.10693 4.18957 2.10693 4.51622L2.1336 11.5359C2.1336 11.9625 2.55366 12.0925 2.97371 12.0125L16.4887 9.84261C16.8088 9.77928 17.0588 9.39597 17.0621 8.89933L17.0355 1.8797C17.0321 1.45305 16.6354 1.53305 16.2287 1.58971Z" fill="#BA793E"/>
</svg>
