<svg width="40" height="41" viewBox="0 0 40 41" fill="none" xmlns="http://www.w3.org/2000/svg">
<path d="M1.14983 40.2616C1.9066 41.0817 5.02365 39.6515 7.48396 38.5047C9.32752 37.6479 16.7051 34.6209 20.3722 33.0507C21.3624 32.6273 22.8025 32.0739 23.8393 30.7104C24.7595 29.4969 27.1998 24.3429 22.2858 19.1223C17.2985 13.8216 12.1612 15.2851 10.241 16.6453C9.11083 17.4454 8.19071 19.2489 7.77733 20.1657C6.03045 24.0395 3.54013 31.1371 2.52667 33.9274C1.78325 35.9844 0.399741 39.4481 1.14983 40.2616Z" fill="#FFC107"/>
<path d="M7.28432 21.3326C7.33098 21.9127 7.44764 22.8562 7.84762 24.6731C8.12094 25.9199 8.56758 27.2267 8.9309 28.0902C10.0208 30.6872 11.5508 31.7339 13.1007 32.5741C15.7339 34.0009 17.5238 34.2676 17.5238 34.2676L15.3772 35.1444C15.3772 35.1444 14.0773 34.8743 12.3041 34.0009C10.6141 33.1675 8.85424 31.7573 7.56764 28.9969C7.011 27.8001 6.68768 26.64 6.50103 25.7199C6.27104 24.5797 6.23438 23.933 6.23438 23.933L7.28432 21.3326Z" fill="#FF8F00"/>
<path d="M4.64685 28.0938C4.64685 28.0938 4.9135 30.257 6.70007 32.9868C8.7933 36.18 11.7165 36.7033 11.7165 36.7033L9.77324 37.5033C9.77324 37.5033 7.60336 36.84 5.54013 34.0234C4.25354 32.2669 3.89355 30.167 3.89355 30.167L4.64685 28.0938Z" fill="#FF8F00"/>
<path d="M2.79615 33.2207C2.79615 33.2207 3.28279 35.0873 4.3494 36.4805C5.61934 38.1438 7.23592 38.6271 7.23592 38.6271L5.746 39.2871C5.746 39.2871 4.61606 39.0504 3.37945 37.4838C2.4395 36.2939 2.17285 34.9273 2.17285 34.9273L2.79615 33.2207Z" fill="#FF8F00"/>
<g opacity="0.44">
<path opacity="0.44" d="M1.98611 37.9617C1.91945 37.8117 1.91945 37.6417 1.98944 37.495L10.479 19.8861L11.8756 25.1368L2.94273 38.0417C2.70274 38.4018 2.16277 38.3551 1.98611 37.9617Z" fill="#FFFDE7"/>
</g>
<path d="M12.5521 26.9003C16.5193 31.5409 21.0365 30.9608 22.54 29.7873C24.0469 28.6105 25.237 24.5666 21.2865 20.0027C17.146 15.2221 12.4588 16.5856 11.3753 17.6191C10.2918 18.6526 8.91164 22.6431 12.5521 26.9003Z" fill="url(#paint0_linear_1664_3615)"/>
<path d="M26.1763 28.8086C24.7294 27.5954 23.9594 27.812 22.9259 28.242C21.5924 28.7953 19.4955 29.2053 16.6484 28.242L17.5052 26.1788C19.1954 26.7487 20.4189 26.4721 21.4757 25.8488C22.8359 25.0488 24.6961 23.9522 27.5898 26.3821C28.7966 27.3954 30.0334 28.0687 30.9402 27.762C31.6003 27.542 31.9504 26.5587 32.127 25.7754C32.1437 25.7055 32.1704 25.5055 32.1904 25.3288C32.3504 24.1055 32.6171 21.4657 34.584 20.1157C36.6876 18.6725 38.8979 18.6725 38.8979 18.6725L39.2979 22.6456C38.2811 22.4956 37.5744 22.7023 36.9776 23.0323C34.7307 24.2822 36.6876 29.0819 33.1905 30.6952C29.8268 32.2584 27.0764 29.5619 26.1763 28.8086Z" fill="#03A9F4"/>
<path d="M13.8 23.7429L12.3534 22.4461C15.0099 19.4791 14.3099 17.2988 13.8 15.7119C13.6966 15.3919 13.6 15.0885 13.5366 14.7985C13.31 13.7717 13.2633 12.8782 13.3333 12.0981C12.3134 10.828 11.8634 9.4978 11.8334 9.40779C11.2134 7.53088 11.6801 5.70065 12.75 3.98377C14.9132 0.5 18.8297 0.5 18.8297 0.5L20.1363 3.99711C19.143 3.9571 15.8865 4.00711 14.8866 5.58397C13.6233 7.57089 14.4533 8.79771 14.5133 8.93773C14.7566 8.62102 15.0032 8.36766 15.2232 8.17096C16.8198 6.75412 18.2064 6.55076 19.0897 6.63077C20.083 6.72078 20.9829 7.22084 21.6262 8.04095C22.3295 8.94106 22.6195 10.1112 22.3962 11.1747C22.1795 12.2115 21.4896 13.0883 20.453 13.645C18.643 14.6184 17.1365 14.4851 16.1265 14.1484C16.1332 14.1717 16.1365 14.1984 16.1432 14.2217C16.1798 14.3884 16.2532 14.6218 16.3398 14.8918C16.9298 16.7187 18.0264 19.6191 13.8 23.7429ZM16.2498 11.2313C16.4432 11.3714 16.6465 11.488 16.8565 11.5714C17.5564 11.8514 18.3197 11.7581 19.1864 11.2914C19.6963 11.018 19.7563 10.7246 19.7763 10.6279C19.8363 10.3379 19.7363 9.96786 19.5197 9.69116C19.3297 9.44779 19.1097 9.32111 18.8464 9.29444C18.3464 9.2511 17.6698 9.56781 16.9931 10.1712C16.6698 10.4613 16.4232 10.818 16.2498 11.2313Z" fill="#F44336"/>
<path d="M19.5927 24.286L17.5225 24.2293C17.5225 24.2293 18.5059 18.6753 21.6896 17.7418C22.2864 17.5685 22.9398 17.3918 23.5966 17.2951C23.9866 17.2351 24.6033 17.1451 24.9067 17.0317C24.9767 16.5083 24.7567 15.8416 24.51 15.0848C24.3166 14.4981 24.1166 13.8947 24.0099 13.2346C23.8032 11.9477 24.1466 10.8109 24.9767 10.0275C25.9902 9.07738 27.6271 8.77401 29.474 9.19407C30.5274 9.4341 31.3042 9.95083 31.9876 10.4042C32.9644 11.0543 33.5345 11.3843 34.7279 10.5809C36.1715 9.60745 34.2846 5.79697 33.2811 3.5967L37.0249 2.0365C37.5283 3.13664 39.9586 8.79735 38.3551 12.0278C37.815 13.1146 36.8849 13.8346 35.6647 14.1047C33.0111 14.6981 31.4575 13.6646 30.3241 12.9112C29.7873 12.5545 29.3173 12.2745 28.8072 12.1278C25.2634 11.1176 30.2107 16.3316 27.8938 18.6753C26.5036 20.0788 23.1065 20.4488 22.8865 20.5022C20.6995 21.0289 19.5927 24.286 19.5927 24.286Z" fill="#F48FB1"/>
<path d="M13.3325 12.0983C13.2692 12.8316 13.2392 13.2682 13.4292 14.2215C14.3458 14.8948 16.3424 14.8948 16.3424 14.8948C16.2557 14.6248 16.1791 14.3915 16.1457 14.2248C16.1391 14.2015 16.1357 14.1748 16.1291 14.1515C14.0992 13.1382 13.3325 12.0983 13.3325 12.0983Z" fill="#C92B27"/>
<path d="M9.17891 15.3813L5.73242 13.6914L7.449 11.2115L10.1522 13.0015L9.17891 15.3813Z" fill="#FFC107"/>
<path d="M4.09648 10.7007C2.33657 10.464 0.543336 8.97076 0.34668 8.80077L2.07659 6.77087C2.59989 7.21418 3.70984 7.95748 4.45313 8.05747L4.09648 10.7007Z" fill="#FB8C00"/>
<path d="M7.2041 6.25612L4.6709 5.42616C4.96088 4.53954 5.03755 3.58292 4.88755 2.65964L7.52075 2.23633C7.7374 3.57626 7.62741 4.96619 7.2041 6.25612Z" fill="#03A9F4"/>
<path d="M25.6323 3.70555L23.0273 4.27539L23.7795 7.7139L26.3845 7.14406L25.6323 3.70555Z" fill="#FB8C00"/>
<path d="M29.4895 5.08946L27.6562 3.1529C28.6162 2.24294 28.8362 1.05301 28.8362 1.03967L31.4694 1.46965C31.4361 1.67964 31.0994 3.56621 29.4895 5.08946Z" fill="#FFC107"/>
<path d="M32.8367 14.6341L30.5078 15.3619L31.3032 17.9071L33.6321 17.1793L32.8367 14.6341Z" fill="#FB8C00"/>
<path d="M31.1871 36.8466L28.5372 36.5332C28.6505 35.59 27.9472 34.4334 27.7539 34.1767L29.8871 32.5768C30.0471 32.7868 31.437 34.71 31.1871 36.8466Z" fill="#F44336"/>
<path d="M38.7929 33.4669C37.7962 33.3169 36.7763 33.2569 35.7697 33.2936L35.6797 30.6271C36.8496 30.5871 38.0329 30.6537 39.1895 30.8304L38.7929 33.4669Z" fill="#FB8C00"/>
<path d="M37.0825 35.2412L35.209 37.1387L37.7872 39.6843L39.6607 37.7868L37.0825 35.2412Z" fill="#F48FB1"/>
<path d="M31.6296 22.4827L29.7031 20.2799L27.5003 22.2064L29.4269 24.4092L31.6296 22.4827Z" fill="#F44336"/>
<defs>
<linearGradient id="paint0_linear_1664_3615" x1="23.4649" y1="19.7822" x2="13.5412" y2="25.7364" gradientUnits="userSpaceOnUse">
<stop offset="0.0235" stop-color="#8F4700"/>
<stop offset="1" stop-color="#703E2D"/>
</linearGradient>
</defs>
</svg>
