<svg width="49" height="49" viewBox="0 0 49 49" fill="none" xmlns="http://www.w3.org/2000/svg">
<path d="M18.0226 27.7824L9.77972 27.0457C9.77972 27.0457 9.74972 27.9957 9.74972 28.8923C9.74972 29.9256 9.95305 30.7689 9.95305 30.7689C9.95305 30.7689 4.92998 32.0055 4.50667 35.8519C4.08336 39.6984 11.6396 44.6282 22.9957 44.4848C34.3518 44.3415 41.2947 39.9317 41.6714 35.8986C42.048 31.8655 35.6184 30.9255 35.6184 30.9255L35.8983 28.7657C35.8983 28.7657 42.608 28.389 42.938 25.0592C43.268 21.7294 40.0281 22.0093 40.0281 22.0093C40.0281 22.0093 41.1081 23.136 41.0614 24.0259C41.0147 24.9159 40.4048 25.9025 38.8549 26.3258C37.3049 26.7491 35.1017 26.9824 35.1017 26.9824L18.0226 27.7824Z" fill="#BBCED3"/>
<path d="M37.0714 20.6028L35.5215 21.6361L35.7081 22.3394C35.7081 22.3394 38.758 22.0594 39.9779 22.526C41.1979 22.996 42.3711 24.9659 42.3711 24.9659L43.8244 22.996L38.708 20.1328L37.0714 20.6028Z" fill="#6AA5AC"/>
<path d="M16.5659 34.8987C16.5659 34.8987 12.6627 33.9054 12.3128 34.742C12.0628 35.3353 13.7294 37.1352 14.9093 38.0585C16.0659 38.9651 18.9691 40.655 22.6989 40.655C26.7653 40.655 29.3619 39.1551 30.8951 37.9952C32.2017 37.0086 33.5216 34.8653 33.2117 34.522C32.895 34.1787 16.5659 34.8987 16.5659 34.8987Z" fill="#6AA5AC"/>
<path d="M10.1694 31.972C10.1694 31.972 5.90634 33.262 5.993 35.8985C6.08633 38.775 11.6227 42.8748 23.1054 42.8448C34.5848 42.8148 39.9679 37.9951 40.2479 35.4319C40.5278 32.8653 35.3381 32.052 35.3381 32.052C35.3381 32.052 33.8982 40.3116 23.0721 40.4983C12.6527 40.6783 10.1694 31.972 10.1694 31.972Z" fill="#E0E0E0"/>
<path d="M35.3681 19.1327C35.3681 19.1327 38.168 18.896 39.6545 19.0693C41.5311 19.2893 44.471 20.6959 44.411 24.0424C44.351 27.3889 41.2811 28.9521 39.4046 29.5788C38.0413 30.0321 34.6181 30.1721 34.6181 30.1721L34.9615 28.1088C34.9615 28.1088 37.838 28.1088 39.2779 27.5755C40.7178 27.0422 42.1244 25.8223 42.1544 24.0091C42.1911 21.9358 39.7779 21.3192 37.9946 21.3492C36.2114 21.3792 34.5215 21.7858 34.5215 21.7858L35.3681 19.1327Z" fill="#E0E0E0"/>
<path d="M22.6655 12.8599C14.0793 13.0765 9.38621 16.803 9.24621 19.4762C9.10622 22.1494 9.81285 29.5723 10.7961 32.0522C11.8761 34.7754 14.9726 39.4185 23.3721 39.0918C31.7717 38.7652 34.1649 34.0721 34.8682 31.1622C35.3815 29.039 36.4648 21.0861 36.1815 19.0562C35.8981 17.0363 32.005 12.6265 22.6655 12.8599Z" fill="#E0E0E0"/>
<path d="M35.3681 33.302C35.3948 33.7253 36.5847 33.9886 36.3081 35.3052C35.9947 36.7751 34.5882 37.0251 34.6181 37.5884C34.6548 38.2517 38.1846 37.7451 38.3413 35.4619C38.4946 33.1786 35.3348 32.8353 35.3681 33.302Z" fill="white"/>
<path d="M10.0291 33.7419C10.4024 34.0686 9.68907 34.5019 9.43575 35.1819C9.0591 36.1818 10.529 37.7484 12.3123 38.6217C13.5689 39.2383 15.4188 39.7883 15.3788 40.3749C15.3154 41.2515 7.02588 39.0017 7.02588 36.0585C7.02588 33.5519 9.52575 33.302 10.0291 33.7419Z" fill="white"/>
<path d="M10.9997 24.136C10.5097 24.696 10.6664 28.6258 11.533 31.1123C12.283 33.2722 13.1296 34.5521 13.9729 34.5855C14.8162 34.6155 13.4396 31.0823 13.5029 28.7991C13.5662 26.5159 13.5029 25.8893 13.0329 25.3593C12.563 24.826 11.4364 23.636 10.9997 24.136Z" fill="white"/>
<path d="M22.9151 15.1897C17.192 15.2697 11.1857 17.6296 11.309 20.6961C11.4357 23.7626 17.4087 25.3892 23.165 25.4191C28.9214 25.4491 34.1445 23.0726 34.1778 20.5394C34.2078 18.0062 29.6414 15.0964 22.9151 15.1897Z" fill="#6D4B41"/>
<path d="M12.7495 20.0693C12.7495 21.0692 14.1561 21.4592 15.0961 21.5092C16.286 21.5725 17.1593 21.1959 17.2559 20.6026C17.3493 20.0093 16.786 19.476 17.5693 19.006C18.3525 18.536 19.3025 18.806 20.4791 19.1626C21.8257 19.5693 23.9523 20.9759 25.1089 20.4126C26.2655 19.8493 25.0155 18.8793 25.5455 18.5027C26.0755 18.126 27.2654 18.126 28.9253 18.7227C30.5819 19.316 32.0852 20.3493 32.6485 19.9126C33.2118 19.476 31.3185 17.4527 26.9554 16.6894C23.0123 16.0028 18.6459 16.4528 16.3193 17.2827C14.1261 18.0694 12.7495 19.196 12.7495 20.0693Z" fill="#B59075"/>
<path d="M26.6387 21.4793C24.6988 22.2292 21.4457 20.196 19.5991 20.416C18.6291 20.5327 18.3492 21.6359 19.2558 22.0126C20.1624 22.3892 20.3057 21.6893 21.4457 22.1059C22.9389 22.6559 26.0421 23.2559 27.1087 22.8559C28.582 22.3026 28.392 21.5426 28.9553 21.4493C29.8886 21.2926 30.8218 22.3092 31.3318 21.7293C31.8018 21.196 31.3251 20.5693 29.7686 20.0094C28.5486 19.5727 27.602 19.4627 27.3287 19.8227C27.0154 20.226 27.5887 21.1093 26.6387 21.4793Z" fill="#B59074"/>
<path opacity="0.4" d="M30.7987 4.33709C30.512 5.08039 32.0186 5.74368 31.0487 7.12028C30.242 8.26355 23.5824 6.81029 20.8192 10.2168C18.4093 13.19 20.3825 16.3498 20.9459 17.2564C21.5092 18.163 22.7591 19.603 23.699 19.353C24.639 19.103 23.1991 15.6932 25.8256 13.9733C28.4521 12.2533 32.1586 12.23 33.8018 10.0935C35.0518 8.46687 34.2718 6.057 33.0819 4.83707C32.2186 3.94711 31.112 3.52047 30.7987 4.33709Z" fill="#B8CED4"/>
</svg>
