<svg width="11" height="11" viewBox="0 0 22 22" fill="none" xmlns="http://www.w3.org/2000/svg">
<path d="M11 0.5C8.9233 0.5 6.89323 1.11581 5.16652 2.26957C3.4398 3.42332 2.09399 5.0632 1.29927 6.98182C0.504549 8.90045 0.296614 11.0116 0.701759 13.0484C1.1069 15.0852 2.10693 16.9562 3.57538 18.4246C5.04383 19.8931 6.91476 20.8931 8.95156 21.2982C10.9884 21.7034 13.0996 21.4955 15.0182 20.7007C16.9368 19.906 18.5767 18.5602 19.7304 16.8335C20.8842 15.1068 21.5 13.0767 21.5 11C21.5 8.21523 20.3938 5.54451 18.4246 3.57538C16.4555 1.60625 13.7848 0.5 11 0.5ZM16.7825 8.5325L10.0325 15.2825C9.96278 15.3528 9.87983 15.4086 9.78844 15.4467C9.69704 15.4847 9.59901 15.5043 9.5 15.5043C9.401 15.5043 9.30297 15.4847 9.21157 15.4467C9.12018 15.4086 9.03723 15.3528 8.9675 15.2825L5.2175 11.5325C5.07628 11.3913 4.99694 11.1997 4.99694 11C4.99694 10.8003 5.07628 10.6087 5.2175 10.4675C5.35873 10.3263 5.55028 10.2469 5.75 10.2469C5.94973 10.2469 6.14128 10.3263 6.2825 10.4675L9.5 13.6925L15.7175 7.4675C15.8587 7.32627 16.0503 7.24693 16.25 7.24693C16.4497 7.24693 16.6413 7.32627 16.7825 7.4675C16.9237 7.60873 17.0031 7.80027 17.0031 8C17.0031 8.19973 16.9237 8.39127 16.7825 8.5325Z" fill="#16A588"/>
</svg>
