<svg width="1000" height="596" viewBox="20 0 1000 596" fill="none" xmlns="http://www.w3.org/2000/svg">
<g filter="url(#filter0_d_1969_8732)">
<path d="M228 494H56C47.1634 494 40 501.163 40 510C40 518.837 47.1634 526 56 526H228V546H56C36.1178 546 20 529.882 20 510C20 490.118 36.1178 474 56 474H228V494Z" fill="white"/>
</g>
<path d="M258.502 508H951.401C979.528 508 995.491 475.793 978.458 453.41L955.628 423.41C949.198 414.961 939.189 410 928.571 410L281.826 410C271.332 410 261.426 414.846 254.985 423.131L231.66 453.131C214.296 475.465 230.212 508 258.502 508Z" fill="#F6996F"/>
<rect x="224" y="436" width="762" height="146" rx="42" fill="#F26727"/>
<circle cx="901" cy="509" r="37" stroke="black" stroke-opacity="0.5" stroke-width="4" stroke-linecap="round" stroke-linejoin="round" stroke-dasharray="0.2 6"/>
<circle cx="887" cy="481" r="2" fill="black" fill-opacity="0.5"/>
<circle cx="887" cy="502" r="2" fill="black" fill-opacity="0.5"/>
<circle cx="887" cy="523" r="2" fill="black" fill-opacity="0.5"/>
<circle cx="887" cy="488" r="2" fill="black" fill-opacity="0.5"/>
<circle cx="887" cy="509" r="2" fill="black" fill-opacity="0.5"/>
<circle cx="887" cy="530" r="2" fill="black" fill-opacity="0.5"/>
<circle cx="887" cy="495" r="2" fill="black" fill-opacity="0.5"/>
<circle cx="887" cy="516" r="2" fill="black" fill-opacity="0.5"/>
<circle cx="887" cy="537" r="2" fill="black" fill-opacity="0.5"/>
<circle cx="894" cy="481" r="2" fill="black" fill-opacity="0.5"/>
<circle cx="894" cy="502" r="2" fill="black" fill-opacity="0.5"/>
<circle cx="894" cy="523" r="2" fill="black" fill-opacity="0.5"/>
<circle cx="894" cy="488" r="2" fill="black" fill-opacity="0.5"/>
<circle cx="894" cy="509" r="2" fill="black" fill-opacity="0.5"/>
<circle cx="894" cy="530" r="2" fill="black" fill-opacity="0.5"/>
<circle cx="894" cy="495" r="2" fill="black" fill-opacity="0.5"/>
<circle cx="894" cy="516" r="2" fill="black" fill-opacity="0.5"/>
<circle cx="894" cy="537" r="2" fill="black" fill-opacity="0.5"/>
<circle cx="901" cy="481" r="2" fill="black" fill-opacity="0.5"/>
<circle cx="901" cy="502" r="2" fill="black" fill-opacity="0.5"/>
<circle cx="901" cy="523" r="2" fill="black" fill-opacity="0.5"/>
<circle cx="901" cy="488" r="2" fill="black" fill-opacity="0.5"/>
<circle cx="901" cy="509" r="2" fill="black" fill-opacity="0.5"/>
<circle cx="901" cy="530" r="2" fill="black" fill-opacity="0.5"/>
<circle cx="901" cy="495" r="2" fill="black" fill-opacity="0.5"/>
<circle cx="901" cy="516" r="2" fill="black" fill-opacity="0.5"/>
<circle cx="901" cy="537" r="2" fill="black" fill-opacity="0.5"/>
<circle cx="908" cy="481" r="2" fill="black" fill-opacity="0.5"/>
<circle cx="908" cy="502" r="2" fill="black" fill-opacity="0.5"/>
<circle cx="922" cy="502" r="2" fill="black" fill-opacity="0.5"/>
<circle cx="873" cy="502" r="2" fill="black" fill-opacity="0.5"/>
<circle cx="908" cy="523" r="2" fill="black" fill-opacity="0.5"/>
<circle cx="908" cy="488" r="2" fill="black" fill-opacity="0.5"/>
<circle cx="908" cy="509" r="2" fill="black" fill-opacity="0.5"/>
<circle cx="922" cy="509" r="2" fill="black" fill-opacity="0.5"/>
<circle cx="873" cy="509" r="2" fill="black" fill-opacity="0.5"/>
<circle cx="908" cy="530" r="2" fill="black" fill-opacity="0.5"/>
<circle cx="908" cy="495" r="2" fill="black" fill-opacity="0.5"/>
<circle cx="922" cy="495" r="2" fill="black" fill-opacity="0.5"/>
<circle cx="873" cy="495" r="2" fill="black" fill-opacity="0.5"/>
<circle cx="922" cy="488" r="2" fill="black" fill-opacity="0.5"/>
<circle cx="880" cy="488" r="2" fill="black" fill-opacity="0.5"/>
<circle cx="908" cy="516" r="2" fill="black" fill-opacity="0.5"/>
<circle cx="922" cy="516" r="2" fill="black" fill-opacity="0.5"/>
<circle cx="873" cy="516" r="2" fill="black" fill-opacity="0.5"/>
<circle cx="922" cy="523" r="2" fill="black" fill-opacity="0.5"/>
<circle cx="873" cy="523" r="2" fill="black" fill-opacity="0.5"/>
<circle cx="880" cy="523" r="2" fill="black" fill-opacity="0.5"/>
<circle cx="922" cy="530" r="2" fill="black" fill-opacity="0.5"/>
<circle cx="880" cy="530" r="2" fill="black" fill-opacity="0.5"/>
<circle cx="908" cy="537" r="2" fill="black" fill-opacity="0.5"/>
<circle cx="915" cy="481" r="2" fill="black" fill-opacity="0.5"/>
<circle cx="915" cy="502" r="2" fill="black" fill-opacity="0.5"/>
<circle cx="929" cy="502" r="2" fill="black" fill-opacity="0.5"/>
<circle cx="880" cy="502" r="2" fill="black" fill-opacity="0.5"/>
<circle cx="915" cy="523" r="2" fill="black" fill-opacity="0.5"/>
<circle cx="915" cy="488" r="2" fill="black" fill-opacity="0.5"/>
<circle cx="915" cy="509" r="2" fill="black" fill-opacity="0.5"/>
<circle cx="929" cy="509" r="2" fill="black" fill-opacity="0.5"/>
<circle cx="880" cy="509" r="2" fill="black" fill-opacity="0.5"/>
<circle cx="915" cy="530" r="2" fill="black" fill-opacity="0.5"/>
<circle cx="915" cy="495" r="2" fill="black" fill-opacity="0.5"/>
<circle cx="929" cy="495" r="2" fill="black" fill-opacity="0.5"/>
<circle cx="880" cy="495" r="2" fill="black" fill-opacity="0.5"/>
<circle cx="915" cy="516" r="2" fill="black" fill-opacity="0.5"/>
<circle cx="929" cy="516" r="2" fill="black" fill-opacity="0.5"/>
<circle cx="880" cy="516" r="2" fill="black" fill-opacity="0.5"/>
<circle cx="929" cy="523" r="2" fill="black" fill-opacity="0.5"/>
<circle cx="915" cy="537" r="2" fill="black" fill-opacity="0.5"/>
<rect x="272" y="454" width="544" height="110" rx="32" fill="black" fill-opacity="0.5"/>
<rect x="377" y="467" width="246" height="84" rx="16" fill="black" fill-opacity="0.5"/>
<path d="M313 582H363C363 589.732 356.732 596 349 596H327C319.268 596 313 589.732 313 582Z" fill="#345051"/>
<path d="M848 582H898C898 589.732 891.732 596 884 596H862C854.268 596 848 589.732 848 582Z" fill="#345051"/>
<path d="M932 404H912C912 404 910 405.5 907 411C904 416.5 904 419 904 419C904 419 909 423 920.5 425C932 427 941 426.5 941 426.5C941 426.5 940.5 420 938 413.5C935.5 407 932 404 932 404Z" fill="#324C4D"/>
<g filter="url(#filter1_d_1969_8732)">
<path d="M912 30C912 24.4772 916.477 20 922 20C927.523 20 932 24.4772 932 30V404H912V30Z" fill="white"/>
</g>
<defs>
<filter id="filter0_d_1969_8732" x="0" y="454" width="248" height="112" filterUnits="userSpaceOnUse" color-interpolation-filters="sRGB">
<feFlood flood-opacity="0" result="BackgroundImageFix"/>
<feColorMatrix in="SourceAlpha" type="matrix" values="0 0 0 0 0 0 0 0 0 0 0 0 0 0 0 0 0 0 127 0" result="hardAlpha"/>
<feOffset/>
<feGaussianBlur stdDeviation="10"/>
<feColorMatrix type="matrix" values="0 0 0 0 0.145098 0 0 0 0 0.760784 0 0 0 0 0.780392 0 0 0 1 0"/>
<feBlend mode="normal" in2="BackgroundImageFix" result="effect1_dropShadow_1969_8732"/>
<feBlend mode="normal" in="SourceGraphic" in2="effect1_dropShadow_1969_8732" result="shape"/>
</filter>
<filter id="filter1_d_1969_8732" x="892" y="0" width="60" height="424" filterUnits="userSpaceOnUse" color-interpolation-filters="sRGB">
<feFlood flood-opacity="0" result="BackgroundImageFix"/>
<feColorMatrix in="SourceAlpha" type="matrix" values="0 0 0 0 0 0 0 0 0 0 0 0 0 0 0 0 0 0 127 0" result="hardAlpha"/>
<feOffset/>
<feGaussianBlur stdDeviation="10"/>
<feColorMatrix type="matrix" values="0 0 0 0 0.145098 0 0 0 0 0.760784 0 0 0 0 0.780392 0 0 0 1 0"/>
<feBlend mode="normal" in2="BackgroundImageFix" result="effect1_dropShadow_1969_8732"/>
<feBlend mode="normal" in="SourceGraphic" in2="effect1_dropShadow_1969_8732" result="shape"/>
</filter>
</defs>
</svg>