<svg width="68" height="72" viewBox="0 0 68 72" fill="none" xmlns="http://www.w3.org/2000/svg">
<g filter="url(#filter0_d_1969_8868)">
<circle cx="34.0001" cy="25" r="18" fill="#D9F2F2"/>
</g>
<rect x="33.0001" y="7" width="2" height="12" fill="#F26727"/>
<path d="M57.5389 30.6822C58.4649 26.0266 57.9896 21.201 56.1731 16.8156C54.3566 12.4302 51.2805 8.68188 47.3337 6.04473C43.3869 3.40758 38.7468 2 34 2C29.2533 2 24.6131 3.40758 20.6663 6.04473C16.7195 8.68188 13.6434 12.4302 11.8269 16.8156C10.0104 21.201 9.53512 26.0266 10.4612 30.6822" stroke="#CCCCCC" stroke-width="4" stroke-dasharray="1 6"/>
<path d="M65 43C64.9996 43.1325 64.9468 43.2594 64.8531 43.3531C64.7594 43.4468 64.6325 43.4996 64.5 43.5H60.5V47.5C60.5 47.6326 60.4473 47.7598 60.3536 47.8536C60.2598 47.9473 60.1326 48 60 48C59.8674 48 59.7402 47.9473 59.6464 47.8536C59.5527 47.7598 59.5 47.6326 59.5 47.5V43.5H55.5C55.3674 43.5 55.2402 43.4473 55.1464 43.3536C55.0527 43.2598 55 43.1326 55 43C55 42.8674 55.0527 42.7402 55.1464 42.6464C55.2402 42.5527 55.3674 42.5 55.5 42.5H59.5V38.5C59.5 38.3674 59.5527 38.2402 59.6464 38.1464C59.7402 38.0527 59.8674 38 60 38C60.1326 38 60.2598 38.0527 60.3536 38.1464C60.4473 38.2402 60.5 38.3674 60.5 38.5V42.5H64.5C64.6325 42.5004 64.7594 42.5532 64.8531 42.6469C64.9468 42.7406 64.9996 42.8675 65 43Z" fill="#C9D2D2"/>
<path d="M12 43.5H4C3.86739 43.5 3.74021 43.4473 3.64645 43.3536C3.55268 43.2598 3.5 43.1326 3.5 43C3.5 42.8674 3.55268 42.7402 3.64645 42.6464C3.74021 42.5527 3.86739 42.5 4 42.5H12C12.1326 42.5 12.2598 42.5527 12.3536 42.6464C12.4473 42.7402 12.5 42.8674 12.5 43C12.5 43.1326 12.4473 43.2598 12.3536 43.3536C12.2598 43.4473 12.1326 43.5 12 43.5Z" fill="#C9D2D2"/>
<defs>
<filter id="filter0_d_1969_8868" x="16.0001" y="7" width="36" height="40" filterUnits="userSpaceOnUse" color-interpolation-filters="sRGB">
<feFlood flood-opacity="0" result="BackgroundImageFix"/>
<feColorMatrix in="SourceAlpha" type="matrix" values="0 0 0 0 0 0 0 0 0 0 0 0 0 0 0 0 0 0 127 0" result="hardAlpha"/>
<feOffset dy="4"/>
<feColorMatrix type="matrix" values="0 0 0 0 0.529412 0 0 0 0 0.764706 0 0 0 0 0.772549 0 0 0 1 0"/>
<feBlend mode="normal" in2="BackgroundImageFix" result="effect1_dropShadow_1969_8868"/>
<feBlend mode="normal" in="SourceGraphic" in2="effect1_dropShadow_1969_8868" result="shape"/>
</filter>
</defs>
</svg>
